<svg width="272" height="272" viewBox="0 0 272 272" fill="none" xmlns="http://www.w3.org/2000/svg">
<path d="M0 0.339844H271.216V271.625H0V0.339844Z" fill="#5D5DFF"/>
<path d="M140.806 174.118H130.208C105.356 174.118 80.5039 174.218 55.635 174.118C41.6494 174.118 34.1703 166.998 34.0697 153.026C33.8181 116.67 34.0697 80.3137 33.902 43.8736C33.902 36.5519 36.954 34.201 43.9636 34.2513C80.6213 34.4529 117.178 34.3185 153.803 34.4529C165.541 34.4529 173.255 40.9348 173.641 52.5722C174.261 71.8502 174.127 91.1954 173.641 110.457C173.641 113.11 169.415 115.646 167.151 118.232C165.055 115.427 161.215 112.673 161.114 109.835C160.527 93.0426 160.846 76.2499 160.795 59.4572C160.795 48.2397 159.89 47.2657 149.057 47.2321C117.782 47.2321 86.4905 47.3664 55.1487 47.0978C48.659 47.0978 46.5293 49.0289 46.5963 55.6788C46.915 87.014 46.697 118.332 46.7473 149.718C46.7473 159.693 48.2565 161.137 58.7038 161.154C88.0333 161.154 117.396 161.154 146.676 161.154C159.672 161.154 161.768 164.999 155.06 176.267C153.266 179.34 151.522 182.447 149.174 186.544H185.195C181.841 180.65 179.024 175.344 176.039 170.104C171.612 162.329 166.648 154.806 162.908 146.729C161.651 144.025 163.378 140.012 163.747 136.468C167.101 137.56 171.913 137.644 173.305 139.827C183.266 155.998 192.674 172.539 201.93 189.147C205.284 195.142 202.685 199.978 195.793 200.113C176.788 200.493 157.782 200.493 138.777 200.113C131.583 199.962 129.353 194.941 132.74 188.358C135.138 184.093 137.62 179.861 140.806 174.118Z" fill="white"/>
<path d="M172.517 237.645C154.624 237.645 136.748 237.745 118.855 237.645C104.937 237.544 97.7428 230.44 97.29 216.503C96.8726 210.347 96.9792 204.168 97.6086 198.031C97.9775 195.512 101.298 193.413 103.26 191.112C105.624 193.345 109.582 195.293 109.968 197.829C111.024 203.807 110.437 210.088 110.42 216.301C110.42 221.792 113.087 224.697 118.537 224.697C152.075 224.697 185.614 224.815 219.153 224.496C220.83 224.496 224.183 220.953 224.183 219.038C224.485 185.738 224.401 152.455 224.401 119.172C224.401 113.311 221.366 110.406 215.598 110.339C209.829 110.272 203.859 110.809 198.04 109.97C195.441 109.583 193.244 106.477 190.863 104.613C193.093 102.211 195.173 97.8957 197.571 97.7613C205.897 96.9652 214.289 97.1455 222.574 98.2987C232.132 99.7764 237.18 107.82 237.247 119.777C237.398 142.984 237.247 166.208 237.247 189.433C237.247 202.01 237.046 214.622 237.247 227.199C237.398 234.639 234.48 237.829 226.85 237.712C208.839 237.477 190.678 237.645 172.517 237.645Z" fill="white"/>
<path d="M122.075 84.9821H86.3061C87.983 88.4582 89.0898 91.145 90.5152 93.6471C96.2838 103.857 102.086 114.017 107.989 124.193C110.236 128.089 112.03 132.841 107.016 134.873C104.601 135.847 98.8495 133.463 97.2732 130.944C87.547 115.31 78.4245 99.2727 69.4026 83.1517C65.7301 76.6025 68.1617 71.9006 75.6073 71.7494C94.3106 71.38 113.008 71.38 131.701 71.7494C139.616 71.9006 141.913 76.5186 138.107 83.5883C134.326 91.0665 130.075 98.2963 125.379 105.234C123.702 107.652 118.671 109.97 116.139 109.147C111.108 107.468 111.946 102.766 114.294 98.6681C116.642 94.5707 118.855 90.5405 122.075 84.9821Z" fill="white"/>
</svg>
