<svg version="1.1" x="0px" y="0px" width="238.64076334345" height="239.84179856608" xmlns="http://www.w3.org/2000/svg" xmlns:xlink="http://www.w3.org/1999/xlink" xmlns:a="http://ns.adobe.com/AdobeSVGViewerExtensions/3.0/" xml:space="preserve"><g transform="translate(0 0)"><g transform="translate(0 0) scale(3.5252959064004 3.5252959064004) rotate(0 33.846912384033 34.01725769043)"><path d="M47.944 44.048h-.002c-2.446.359-5 .549-7.625.549-10.746 0-20.284-3.174-26.281-8.078.198.205 10.466 10.891 26.504 14.932l-6.523 6.522L10.06 34.016l23.956-23.954 8.088 8.087c-5.014 8.2-14.722 15.783-28.421 15.83 0 0 13.627 6.706 33.922-10.329a79.976 79.976 0 005.948-5.563l-3.828-3.829-6.215-6.213-7.02-7.021a3.5 3.5 0 00-4.947 0L1.027 31.543a3.495 3.495 0 000 4.949l30.517 30.519a3.5 3.5 0 004.947 0l14.08-14.082h.003L67.01 36.492c.273-.273.492-.581.652-.906-4.534 4.183-11.531 7.265-19.718 8.462z" fill="#2c2f39"></path><path d="M57.406 21.938s-4.49 8.307-12.922 13.648l.859-5.439c-17.975 9.95-29.642 6.125-29.961 6.014 0 0 10.462 5.455 23.764 1.52l-1.629 4.515c5.297.011 10.207-.909 14.482-2.203 7.925-2.397 13.682-6.074 15.695-7.473L57.406 21.938z" fill="#f28733"></path></g></g></svg>